<svg width="400" height="200" viewBox="0 0 400 200" fill="none" xmlns="http://www.w3.org/2000/svg">
<g style="mix-blend-mode:lighten">
<path d="M88.301 68.9995C79.4403 68.9996 72.1795 72.9377 67.8723 78.4756C64.3034 72.6916 58.1501 68.9997 49.5355 68.9998C42.2747 68.9998 36.2446 71.5842 32.0604 76.0146L32.0604 70.3536L20 70.3537L20.0008 130.779L32.9226 130.778L32.9221 94.8435C32.922 86.4751 38.3368 80.8141 46.2129 80.814C53.966 80.814 58.8887 86.4749 58.8888 94.8433L58.8893 130.778L71.8111 130.778L71.8106 94.2279C71.8105 86.5979 77.2253 80.8138 85.1014 80.8137C92.9776 80.8137 97.6541 86.4746 97.6542 94.843L97.6547 130.778L110.7 130.778L110.699 92.997C110.699 78.8445 102.576 68.9994 88.301 68.9995Z" fill="white"/>
<path d="M88.301 68.9995C79.4403 68.9996 72.1795 72.9377 67.8723 78.4756C64.3034 72.6916 58.1501 68.9997 49.5355 68.9998C42.2747 68.9998 36.2446 71.5842 32.0604 76.0146L32.0604 70.3536L20 70.3537L20.0008 130.779L32.9226 130.778L32.9221 94.8435C32.922 86.4751 38.3368 80.8141 46.2129 80.814C53.966 80.814 58.8887 86.4749 58.8888 94.8433L58.8893 130.778L71.8111 130.778L71.8106 94.2279C71.8105 86.5979 77.2253 80.8138 85.1014 80.8137C92.9776 80.8137 97.6541 86.4746 97.6542 94.843L97.6547 130.778L110.7 130.778L110.699 92.997C110.699 78.8445 102.576 68.9994 88.301 68.9995Z" fill="url(#paint0_radial_1776_117485)"/>
<path d="M88.301 68.9995C79.4403 68.9996 72.1795 72.9377 67.8723 78.4756C64.3034 72.6916 58.1501 68.9997 49.5355 68.9998C42.2747 68.9998 36.2446 71.5842 32.0604 76.0146L32.0604 70.3536L20 70.3537L20.0008 130.779L32.9226 130.778L32.9221 94.8435C32.922 86.4751 38.3368 80.8141 46.2129 80.814C53.966 80.814 58.8887 86.4749 58.8888 94.8433L58.8893 130.778L71.8111 130.778L71.8106 94.2279C71.8105 86.5979 77.2253 80.8138 85.1014 80.8137C92.9776 80.8137 97.6541 86.4746 97.6542 94.843L97.6547 130.778L110.7 130.778L110.699 92.997C110.699 78.8445 102.576 68.9994 88.301 68.9995Z" fill="url(#paint1_radial_1776_117485)"/>
<path d="M150.549 132.131C168.517 132.131 182.669 118.102 182.669 100.503C182.669 82.9051 168.516 68.9989 150.549 68.9991C132.704 68.9992 118.675 82.7825 118.675 100.504C118.675 118.102 132.705 132.131 150.549 132.131ZM150.549 120.194C139.843 120.194 131.843 111.826 131.843 100.627C131.843 89.3049 139.842 80.8134 150.672 80.8133C161.255 80.8132 169.378 89.3046 169.378 100.627C169.378 111.702 161.256 120.194 150.549 120.194Z" fill="white"/>
<path d="M150.549 132.131C168.517 132.131 182.669 118.102 182.669 100.503C182.669 82.9051 168.516 68.9989 150.549 68.9991C132.704 68.9992 118.675 82.7825 118.675 100.504C118.675 118.102 132.705 132.131 150.549 132.131ZM150.549 120.194C139.843 120.194 131.843 111.826 131.843 100.627C131.843 89.3049 139.842 80.8134 150.672 80.8133C161.255 80.8132 169.378 89.3046 169.378 100.627C169.378 111.702 161.256 120.194 150.549 120.194Z" fill="url(#paint2_radial_1776_117485)"/>
<path d="M150.549 132.131C168.517 132.131 182.669 118.102 182.669 100.503C182.669 82.9051 168.516 68.9989 150.549 68.9991C132.704 68.9992 118.675 82.7825 118.675 100.504C118.675 118.102 132.705 132.131 150.549 132.131ZM150.549 120.194C139.843 120.194 131.843 111.826 131.843 100.627C131.843 89.3049 139.842 80.8134 150.672 80.8133C161.255 80.8132 169.378 89.3046 169.378 100.627C169.378 111.702 161.256 120.194 150.549 120.194Z" fill="url(#paint3_radial_1776_117485)"/>
<path d="M238.709 70.3521L238.709 78.9667C234.279 72.6904 226.526 68.9985 217.296 68.9986C200.559 68.9987 187.884 81.4283 187.884 99.2727C187.884 117.117 200.437 129.547 217.297 129.546C225.665 129.546 233.049 126.47 237.725 120.932L237.725 125.239C237.726 136.807 230.342 142.468 219.635 142.468C210.774 142.468 204.375 138.653 198.468 133.854L191.33 142.838C197.73 148.868 207.452 154.283 220.374 154.282C238.341 154.282 250.647 143.945 250.647 124.501L250.646 70.352L238.709 70.3521ZM219.635 118.224C209.297 118.225 201.175 110.718 201.175 99.2726C201.175 87.9507 209.297 80.5667 219.634 80.5666C228.741 80.5666 237.848 85.9814 237.848 99.1493C237.848 112.317 228.865 118.224 219.635 118.224Z" fill="white"/>
<path d="M238.709 70.3521L238.709 78.9667C234.279 72.6904 226.526 68.9985 217.296 68.9986C200.559 68.9987 187.884 81.4283 187.884 99.2727C187.884 117.117 200.437 129.547 217.297 129.546C225.665 129.546 233.049 126.47 237.725 120.932L237.725 125.239C237.726 136.807 230.342 142.468 219.635 142.468C210.774 142.468 204.375 138.653 198.468 133.854L191.33 142.838C197.73 148.868 207.452 154.283 220.374 154.282C238.341 154.282 250.647 143.945 250.647 124.501L250.646 70.352L238.709 70.3521ZM219.635 118.224C209.297 118.225 201.175 110.718 201.175 99.2726C201.175 87.9507 209.297 80.5667 219.634 80.5666C228.741 80.5666 237.848 85.9814 237.848 99.1493C237.848 112.317 228.865 118.224 219.635 118.224Z" fill="url(#paint4_radial_1776_117485)"/>
<path d="M238.709 70.3521L238.709 78.9667C234.279 72.6904 226.526 68.9985 217.296 68.9986C200.559 68.9987 187.884 81.4283 187.884 99.2727C187.884 117.117 200.437 129.547 217.297 129.546C225.665 129.546 233.049 126.47 237.725 120.932L237.725 125.239C237.726 136.807 230.342 142.468 219.635 142.468C210.774 142.468 204.375 138.653 198.468 133.854L191.33 142.838C197.73 148.868 207.452 154.283 220.374 154.282C238.341 154.282 250.647 143.945 250.647 124.501L250.646 70.352L238.709 70.3521ZM219.635 118.224C209.297 118.225 201.175 110.718 201.175 99.2726C201.175 87.9507 209.297 80.5667 219.634 80.5666C228.741 80.5666 237.848 85.9814 237.848 99.1493C237.848 112.317 228.865 118.224 219.635 118.224Z" fill="url(#paint5_radial_1776_117485)"/>
<path d="M318.553 96.6874C318.552 80.8121 306.738 68.9979 290.617 68.998C273.018 68.9982 259.358 82.9046 259.359 100.626C259.359 118.47 273.142 132.13 291.848 132.13C301.447 132.13 309.569 128.438 315.969 122.408L309.815 113.547C304.77 117.978 299.232 120.685 292.217 120.685C281.88 120.685 274.25 114.778 272.527 104.81L317.568 104.81C317.937 103.21 318.553 100.01 318.553 96.6874ZM290.124 79.9508C298.37 79.9507 305.385 85.2425 305.631 94.7185L272.772 94.7187C274.741 85.735 281.633 79.9509 290.124 79.9508Z" fill="white"/>
<path d="M318.553 96.6874C318.552 80.8121 306.738 68.9979 290.617 68.998C273.018 68.9982 259.358 82.9046 259.359 100.626C259.359 118.47 273.142 132.13 291.848 132.13C301.447 132.13 309.569 128.438 315.969 122.408L309.815 113.547C304.77 117.978 299.232 120.685 292.217 120.685C281.88 120.685 274.25 114.778 272.527 104.81L317.568 104.81C317.937 103.21 318.553 100.01 318.553 96.6874ZM290.124 79.9508C298.37 79.9507 305.385 85.2425 305.631 94.7185L272.772 94.7187C274.741 85.735 281.633 79.9509 290.124 79.9508Z" fill="url(#paint6_radial_1776_117485)"/>
<path d="M318.553 96.6874C318.552 80.8121 306.738 68.9979 290.617 68.998C273.018 68.9982 259.358 82.9046 259.359 100.626C259.359 118.47 273.142 132.13 291.848 132.13C301.447 132.13 309.569 128.438 315.969 122.408L309.815 113.547C304.77 117.978 299.232 120.685 292.217 120.685C281.88 120.685 274.25 114.778 272.527 104.81L317.568 104.81C317.937 103.21 318.553 100.01 318.553 96.6874ZM290.124 79.9508C298.37 79.9507 305.385 85.2425 305.631 94.7185L272.772 94.7187C274.741 85.735 281.633 79.9509 290.124 79.9508Z" fill="url(#paint7_radial_1776_117485)"/>
<path d="M357.356 68.9976C349.726 68.9976 343.573 71.7051 339.266 76.2585L339.266 70.3514L327.205 70.3515L327.206 130.776L340.128 130.776L340.127 94.7182C340.127 86.4729 345.911 80.6888 353.91 80.6887C361.91 80.6887 367.078 86.4727 367.079 94.718L367.079 130.776L380.001 130.776L380 92.995C380 78.8426 371.632 68.9975 357.356 68.9976Z" fill="white"/>
<path d="M357.356 68.9976C349.726 68.9976 343.573 71.7051 339.266 76.2585L339.266 70.3514L327.205 70.3515L327.206 130.776L340.128 130.776L340.127 94.7182C340.127 86.4729 345.911 80.6888 353.91 80.6887C361.91 80.6887 367.078 86.4727 367.079 94.718L367.079 130.776L380.001 130.776L380 92.995C380 78.8426 371.632 68.9975 357.356 68.9976Z" fill="url(#paint8_radial_1776_117485)"/>
<path d="M357.356 68.9976C349.726 68.9976 343.573 71.7051 339.266 76.2585L339.266 70.3514L327.205 70.3515L327.206 130.776L340.128 130.776L340.127 94.7182C340.127 86.4729 345.911 80.6888 353.91 80.6887C361.91 80.6887 367.078 86.4727 367.079 94.718L367.079 130.776L380.001 130.776L380 92.995C380 78.8426 371.632 68.9975 357.356 68.9976Z" fill="url(#paint9_radial_1776_117485)"/>
</g>
<defs>
<radialGradient id="paint0_radial_1776_117485" cx="0" cy="0" r="1" gradientUnits="userSpaceOnUse" gradientTransform="translate(61.1206 40.5781) rotate(20.6931) scale(259.222 690.73)">
<stop stop-color="#FFF2C4"/>
<stop offset="1" stop-color="#FF33DE" stop-opacity="0"/>
</radialGradient>
<radialGradient id="paint1_radial_1776_117485" cx="0" cy="0" r="1" gradientUnits="userSpaceOnUse" gradientTransform="translate(362.448 53.1642) rotate(145.171) scale(198.334 523.893)">
<stop stop-color="#6DEEFF"/>
<stop offset="1" stop-color="#6DEEFF" stop-opacity="0"/>
</radialGradient>
<radialGradient id="paint2_radial_1776_117485" cx="0" cy="0" r="1" gradientUnits="userSpaceOnUse" gradientTransform="translate(61.1206 40.5781) rotate(20.6931) scale(259.222 690.73)">
<stop stop-color="#FFF2C4"/>
<stop offset="1" stop-color="#FF33DE" stop-opacity="0"/>
</radialGradient>
<radialGradient id="paint3_radial_1776_117485" cx="0" cy="0" r="1" gradientUnits="userSpaceOnUse" gradientTransform="translate(362.448 53.1642) rotate(145.171) scale(198.334 523.893)">
<stop stop-color="#6DEEFF"/>
<stop offset="1" stop-color="#6DEEFF" stop-opacity="0"/>
</radialGradient>
<radialGradient id="paint4_radial_1776_117485" cx="0" cy="0" r="1" gradientUnits="userSpaceOnUse" gradientTransform="translate(61.1206 40.5781) rotate(20.6931) scale(259.222 690.73)">
<stop stop-color="#FFF2C4"/>
<stop offset="1" stop-color="#FF33DE" stop-opacity="0"/>
</radialGradient>
<radialGradient id="paint5_radial_1776_117485" cx="0" cy="0" r="1" gradientUnits="userSpaceOnUse" gradientTransform="translate(362.448 53.1642) rotate(145.171) scale(198.334 523.893)">
<stop stop-color="#6DEEFF"/>
<stop offset="1" stop-color="#6DEEFF" stop-opacity="0"/>
</radialGradient>
<radialGradient id="paint6_radial_1776_117485" cx="0" cy="0" r="1" gradientUnits="userSpaceOnUse" gradientTransform="translate(61.1206 40.5781) rotate(20.6931) scale(259.222 690.73)">
<stop stop-color="#FFF2C4"/>
<stop offset="1" stop-color="#FF33DE" stop-opacity="0"/>
</radialGradient>
<radialGradient id="paint7_radial_1776_117485" cx="0" cy="0" r="1" gradientUnits="userSpaceOnUse" gradientTransform="translate(362.448 53.1642) rotate(145.171) scale(198.334 523.893)">
<stop stop-color="#6DEEFF"/>
<stop offset="1" stop-color="#6DEEFF" stop-opacity="0"/>
</radialGradient>
<radialGradient id="paint8_radial_1776_117485" cx="0" cy="0" r="1" gradientUnits="userSpaceOnUse" gradientTransform="translate(61.1206 40.5781) rotate(20.6931) scale(259.222 690.73)">
<stop stop-color="#FFF2C4"/>
<stop offset="1" stop-color="#FF33DE" stop-opacity="0"/>
</radialGradient>
<radialGradient id="paint9_radial_1776_117485" cx="0" cy="0" r="1" gradientUnits="userSpaceOnUse" gradientTransform="translate(362.448 53.1642) rotate(145.171) scale(198.334 523.893)">
<stop stop-color="#6DEEFF"/>
<stop offset="1" stop-color="#6DEEFF" stop-opacity="0"/>
</radialGradient>
</defs>
</svg>
