<svg width="400" height="200" viewBox="0 0 400 200" fill="none" xmlns="http://www.w3.org/2000/svg">
<path d="M88.301 66.0024C79.4403 66.0025 72.1795 69.9406 67.8723 75.4786C64.3034 69.6946 58.1501 66.0027 49.5355 66.0027C42.2747 66.0028 36.2446 68.5872 32.0604 73.0175L32.0604 67.3566L20 67.3566L20.0008 127.781L32.9226 127.781L32.9221 91.8464C32.922 83.478 38.3368 77.817 46.2129 77.817C53.966 77.8169 58.8887 83.4778 58.8888 91.8463L58.8893 127.781L71.8111 127.781L71.8106 91.2308C71.8105 83.6008 77.2253 77.8167 85.1014 77.8167C92.9776 77.8166 97.6541 83.4776 97.6542 91.846L97.6547 127.781L110.7 127.781L110.699 89.9999C110.699 75.8475 102.576 66.0023 88.301 66.0024Z" fill="url(#paint0_linear_1776_117485)"/>
<path d="M150.549 129.134C168.517 129.134 182.669 115.105 182.669 97.5063C182.669 79.9081 168.516 66.0019 150.549 66.002C132.704 66.0021 118.675 79.7855 118.675 97.5068C118.675 115.105 132.705 129.134 150.549 129.134ZM150.549 117.197C139.843 117.197 131.843 108.829 131.843 97.6298C131.843 86.3078 139.842 77.8163 150.672 77.8162C161.255 77.8161 169.378 86.3075 169.378 97.6295C169.378 108.705 161.256 117.197 150.549 117.197Z" fill="url(#paint1_linear_1776_117485)"/>
<path d="M238.709 67.3551L238.709 75.9696C234.279 69.6933 226.526 66.0014 217.296 66.0015C200.559 66.0016 187.884 78.4313 187.884 96.2757C187.884 114.12 200.437 126.549 217.297 126.549C225.665 126.549 233.049 123.473 237.725 117.935L237.725 122.242C237.726 133.81 230.342 139.471 219.635 139.471C210.774 139.471 204.375 135.656 198.468 130.857L191.33 139.841C197.73 145.871 207.452 151.285 220.374 151.285C238.341 151.285 250.647 140.948 250.647 121.503L250.646 67.355L238.709 67.3551ZM219.635 115.227C209.297 115.227 201.175 107.721 201.175 96.2756C201.175 84.9536 209.297 77.5696 219.634 77.5696C228.741 77.5695 237.848 82.9843 237.848 96.1522C237.848 109.32 228.865 115.227 219.635 115.227Z" fill="url(#paint2_linear_1776_117485)"/>
<path d="M318.553 93.6903C318.552 77.815 306.738 66.0009 290.617 66.001C273.018 66.0011 259.358 79.9075 259.359 97.6288C259.359 115.473 273.142 129.133 291.848 129.133C301.447 129.133 309.569 125.441 315.969 119.411L309.815 110.55C304.77 114.981 299.232 117.688 292.217 117.688C281.88 117.688 274.25 111.781 272.527 101.813L317.568 101.813C317.937 100.213 318.553 97.0131 318.553 93.6903ZM290.124 76.9537C298.37 76.9537 305.385 82.2454 305.631 91.7214L272.772 91.7216C274.741 82.7379 281.633 76.9538 290.124 76.9537Z" fill="url(#paint3_linear_1776_117485)"/>
<path d="M357.356 66.0005C349.726 66.0005 343.573 68.708 339.266 73.2614L339.266 67.3543L327.205 67.3544L327.206 127.779L340.128 127.779L340.127 91.7212C340.127 83.4758 345.911 77.6917 353.91 77.6917C361.91 77.6916 367.078 83.4756 367.079 91.721L367.079 127.779L380.001 127.779L380 89.998C380 75.8455 371.632 66.0004 357.356 66.0005Z" fill="url(#paint4_linear_1776_117485)"/>
<defs>
<linearGradient id="paint0_linear_1776_117485" x1="20" y1="100.5" x2="380" y2="99.002" gradientUnits="userSpaceOnUse">
<stop stop-color="#FFE1CC"/>
<stop offset="0.351706" stop-color="#F4CCE9"/>
<stop offset="0.65355" stop-color="#D3D6EF"/>
<stop offset="1" stop-color="#7DEFFF"/>
</linearGradient>
<linearGradient id="paint1_linear_1776_117485" x1="20" y1="100.5" x2="380" y2="99.002" gradientUnits="userSpaceOnUse">
<stop stop-color="#FFE1CC"/>
<stop offset="0.351706" stop-color="#F4CCE9"/>
<stop offset="0.65355" stop-color="#D3D6EF"/>
<stop offset="1" stop-color="#7DEFFF"/>
</linearGradient>
<linearGradient id="paint2_linear_1776_117485" x1="20" y1="100.5" x2="380" y2="99.002" gradientUnits="userSpaceOnUse">
<stop stop-color="#FFE1CC"/>
<stop offset="0.351706" stop-color="#F4CCE9"/>
<stop offset="0.65355" stop-color="#D3D6EF"/>
<stop offset="1" stop-color="#7DEFFF"/>
</linearGradient>
<linearGradient id="paint3_linear_1776_117485" x1="20" y1="100.5" x2="380" y2="99.002" gradientUnits="userSpaceOnUse">
<stop stop-color="#FFE1CC"/>
<stop offset="0.351706" stop-color="#F4CCE9"/>
<stop offset="0.65355" stop-color="#D3D6EF"/>
<stop offset="1" stop-color="#7DEFFF"/>
</linearGradient>
<linearGradient id="paint4_linear_1776_117485" x1="20" y1="100.5" x2="380" y2="99.002" gradientUnits="userSpaceOnUse">
<stop stop-color="#FFE1CC"/>
<stop offset="0.351706" stop-color="#F4CCE9"/>
<stop offset="0.65355" stop-color="#D3D6EF"/>
<stop offset="1" stop-color="#7DEFFF"/>
</linearGradient>
</defs>
</svg>
